<?xml version="1.0" standalone="no"?>
<!DOCTYPE svg PUBLIC "-//W3C//DTD SVG 20010904//EN"
 "http://www.w3.org/TR/2001/REC-SVG-20010904/DTD/svg10.dtd">
<svg version="1.0" xmlns="http://www.w3.org/2000/svg"
 width="500.000000pt" height="500.000000pt" viewBox="0 0 500.000000 500.000000"
 preserveAspectRatio="xMidYMid meet">

<g transform="translate(0.000000,500.000000) scale(0.100000,-0.100000)"
fill="#000000" stroke="none">
<path d="M1291 4235 c-56 -96 -101 -178 -101 -182 0 -5 293 -301 650 -658
l650 -650 655 655 c360 360 655 658 655 663 0 4 -44 84 -97 177 l-98 170
-1106 0 -1107 0 -101 -175z"/>
<path d="M3352 3127 l-622 -622 625 -625 c389 -389 628 -621 634 -615 15 17
711 1227 711 1237 0 5 -129 233 -287 506 -157 274 -318 552 -357 620 -39 67
-73 122 -76 122 -3 0 -285 -280 -628 -623z"/>
<path d="M948 3643 c-31 -54 -129 -224 -218 -378 -89 -154 -225 -389 -301
-522 l-140 -241 352 -609 c193 -334 355 -612 360 -618 9 -9 1239 1210 1239
1229 0 9 -1220 1236 -1230 1236 -3 0 -31 -44 -62 -97z"/>
<path d="M1833 1608 l-651 -653 105 -183 106 -182 1106 2 1106 3 97 169 c54
93 98 174 98 180 0 11 -1300 1316 -1310 1316 -3 0 -298 -294 -657 -652z"/>
</g>
</svg>
