<svg xmlns="http://www.w3.org/2000/svg" fill="none" viewBox="0 0 128 128">
<path d="M1231 4318 l-111 -193 685 -685 685 -685 691 691 692 692 -108 186
-107 186 -1158 0 -1158 0 -111 -192z"/>
<path d="M3397 3162 l-657 -657 660 -660 c362 -362 661 -657 664 -655 12 13
749 1297 749 1306 0 9 -712 1253 -748 1306 -9 14 -100 -72 -668 -640z"/>
<path d="M908 3758 c-14 -23 -184 -317 -377 -652 l-351 -608 307 -532 c168
-292 335 -582 371 -644 35 -62 67 -114 71 -116 4 -3 299 288 656 645 l650 649
-651 651 -651 651 -25 -44z"/>
<path d="M1802 1567 c-375 -375 -682 -686 -682 -692 1 -5 49 -93 109 -195
l107 -185 1164 0 1164 0 103 178 c57 98 103 182 103 185 0 4 -312 319 -692
699 l-693 693 -683 -683z"/>
    <style>
        path { fill: #000; }
        @media (prefers-color-scheme: dark) {
            path { fill: #FFF; }
        }
    </style>
</svg>
