<?xml version="1.0" standalone="no"?>
<!DOCTYPE svg PUBLIC "-//W3C//DTD SVG 20010904//EN"
 "http://www.w3.org/TR/2001/REC-SVG-20010904/DTD/svg10.dtd">
<svg version="1.0" xmlns="http://www.w3.org/2000/svg"
 width="500.000000pt" height="500.000000pt" viewBox="0 0 500.000000 500.000000"
 preserveAspectRatio="xMidYMid meet">

<g transform="translate(0.000000,500.000000) scale(0.100000,-0.100000)"
fill="#000000" stroke="none">
<path d="M1354 4343 c-20 -38 -66 -116 -101 -176 -34 -59 -63 -111 -63 -115 0
-4 293 -300 650 -657 l650 -650 655 655 c360 360 655 658 655 661 0 3 -44 82
-98 175 l-99 169 -1105 3 -1106 2 -38 -67z"/>
<path d="M3357 3132 c-339 -340 -617 -622 -617 -628 0 -12 1238 -1249 1244
-1243 3 3 29 45 57 95 28 49 102 177 164 284 62 107 199 345 304 528 187 323
192 333 178 360 -7 15 -122 214 -253 442 -132 228 -287 497 -345 597 -57 101
-106 183 -109 183 -3 0 -283 -278 -623 -618z"/>
<path d="M959 3658 c-23 -40 -65 -113 -94 -163 -322 -554 -565 -980 -565 -993
0 -8 66 -128 146 -266 80 -138 238 -412 352 -609 113 -196 208 -357 211 -357
3 0 283 277 621 615 l615 615 -615 615 c-338 338 -618 615 -622 615 -4 0 -26
-33 -49 -72z"/>
<path d="M1832 1607 c-353 -354 -642 -647 -642 -651 0 -9 163 -296 193 -339
l18 -27 1101 2 1100 3 101 173 100 174 -654 654 c-360 360 -658 654 -664 654
-6 0 -299 -289 -653 -643z"/>
</g>
</svg>
